<svg 
  id="Crewdeck" 
  xmlns="http://www.w3.org/2000/svg" 
  xmlns:xlink="http://www.w3.org/1999/xlink" 
  width="538.158" 
  height="87.298" 
  viewBox="0 0 538.158 87.298"
>
  <defs>
    <linearGradient 
      id="名称未設定グラデーション_88" 
      x1="26.71" 
      y1="300.023" 
      x2="94.362" 
      y2="260.964" 
      gradientUnits="userSpaceOnUse"
    >
      <stop offset="0" stop-color="#008c87"/>
      <stop offset="0.35" stop-color="#14aaa3"/>
      <stop offset="1" stop-color="#00ccc4"/>
    </linearGradient>
  </defs>
  <g id="Logo">
    <path 
      d="M52.145,300.619c0-8.75,3.4-15.587,9.654-19.736l-.018.011h0c-.573.219-1.112.443-1.661.666-.355.144-.728.285-1.074.431-.729.307-1.427.621-2.117.937-.145.066-.3.13-.445.2-11.564,5.393-17.82,12.283-24.99,25.032,3.152,20.765,20.258,35.49,42.345,35.49,9.1,0,16.79-2.1,22.273-6.063V317.528a33.524,33.524,0,0,1-20.058,6.764C62.291,324.292,52.145,315.2,52.145,300.619Z" 
      transform="translate(-30.921 -256.351)"
    />
    <path 
      d="M59.042,281.993c.346-.146.719-.287,1.074-.431.55-.223,1.088-.447,1.661-.666.014-.011.066-.045.013-.009l.021-.013-.012.009A25.576,25.576,0,0,1,76.518,276.6a32.308,32.308,0,0,1,18.657,5.947V262.372c-5.482-3.148-12.71-4.9-20.524-4.9-24.838,0-43.73,18.541-43.73,43.73a45.5,45.5,0,0,0,.527,7.027c7.188-12.8,13.446-19.7,25.032-25.1.144-.067.3-.13.445-.2C57.616,282.614,58.313,282.3,59.042,281.993Z" 
      transform="translate(-30.921 -256.351)" 
      fill="url(#名称未設定グラデーション_88)"
    />
    <path 
      d="M133.1,294.3v-9.387H115.82v57H133.1V323.687c0-15.372,3.943-24.214,16.594-23.806.273-1.5,1.905-14.283,2.313-15.915C144.521,283.15,135.68,286.55,133.1,294.3Z" 
      transform="translate(-30.921 -256.351)"
    />
    <path 
      d="M186.149,283.829c-16.323,0-28.566,11.835-28.566,29.52,0,17.955,12.1,29.382,31.557,29.382a38.623,38.623,0,0,0,22.854-6.666l-7.482-11.97a22.941,22.941,0,0,1-14.826,5.034c-7.89,0-14.421-3.675-15.1-11.565h38.088a61.172,61.172,0,0,0,.408-6.664C213.083,293.9,201.113,283.829,186.149,283.829Zm-11.292,21.63c1.632-5.986,5.85-9.8,11.835-9.8,6.258,0,10.476,3.672,11.427,9.8Z" 
      transform="translate(-30.921 -256.351)"
    />
    <polygon 
      points="246.777 56.59 233.718 28.158 229.773 28.158 216.714 56.59 205.016 28.566 186.107 28.566 214.946 86.38 218.754 86.38 231.951 56.725 244.872 86.38 248.682 86.38 277.656 28.566 258.612 28.566 246.777 56.59"
    />
    <path 
      d="M353.467,287.093a35.252,35.252,0,0,0-13.6-2.992c-17.14,0-27.07,13.74-27.07,30.336,0,17,9.114,28.429,24.078,28.429,10.474,0,15.235-7.752,16.732-10.881v9.93h17.274V256.351l-17.412,3.672Zm.138,20.678c0,13.738-4.9,20.812-12.243,20.812-7.755,0-11.019-6.393-11.019-14.418,0-8.842,4.488-16.461,13.059-16.461a18.114,18.114,0,0,1,10.2,3.129Z" 
      transform="translate(-30.921 -256.351)"
    />
    <path 
      d="M411.145,283.829c-16.323,0-28.566,11.835-28.566,29.52,0,17.955,12.106,29.382,31.558,29.382a38.623,38.623,0,0,0,22.854-6.666l-7.482-11.97a22.944,22.944,0,0,1-14.827,5.034c-7.89,0-14.42-3.675-15.1-11.565h38.089a61.172,61.172,0,0,0,.408-6.664C438.08,293.9,426.109,283.829,411.145,283.829Zm-11.291,21.63c1.632-5.986,5.85-9.8,11.835-9.8,6.258,0,10.475,3.672,11.427,9.8Z" 
      transform="translate(-30.921 -256.351)"
    />
    <path 
      d="M479.432,328.856c-7.887,0-15.234-5.034-15.234-15.78s7.482-15.643,15.507-15.643a29.43,29.43,0,0,1,14.691,4.081l1.5-13.74c-.408-.273-7.482-3.945-18.363-3.945-17.412,0-30.471,10.2-30.471,29.52,0,19.179,12.651,29.655,30.606,29.655a38.393,38.393,0,0,0,22.038-6.8L492.9,324.1A22.1,22.1,0,0,1,479.432,328.856Z" 
      transform="translate(-30.921 -256.351)"
    />
    <polygon 
      points="515.033 52.644 532.581 28.566 512.04 28.566 496.262 52.644 517.211 85.564 538.158 85.564 515.033 52.644"
    />
    <polygon 
      points="477.761 85.564 495.173 85.564 495.173 0 477.761 3.537 477.761 85.564"
    />
  </g>
</svg>